# xmcd
#
# Track frame offsets: 
#        150
#        20740
#        41252
#        70088
#        88874
#        104180
#        125272
#        143353
#        164989
#        182244
#        197651
#        212028
#        234355
#        247557
#        271400
#        296961
#        313501
#        335392
#
# Disc length: 4719 seconds
#
# Revision: 0
# Processed by: cddbd v1.5.2PL0 Copyright (c) Steve Scherf et al.
# Submitted via: ExactAudioCopy v0.95b4
#
DISCID=0b126d12
DTITLE=Various Artist - Romantic Songs Of Euroamerica #3
DYEAR=2003
DGENRE=Pop
TTITLE0=The One You Love
TTITLE1=Because You Love Me
TTITLE2=Scarborogh Fair
TTITLE3=It's Might Be You
TTITLE4=Against All Odds
TTITLE5=My Heart Will Go On
TTITLE6=I Like Chopin
TTITLE7=Reality
TTITLE8=Lady
TTITLE9=Lovin' You
TTITLE10=Love Story
TTITLE11=All By Myself
TTITLE12=Smoke Gets In Your Eyes
TTITLE13=Ocean Deep
TTITLE14=You're My Everything
TTITLE15=Save The Best For Last
TTITLE16=I Don't Want To Talk About It
TTITLE17=Sometimes When We Touch
EXTD=
EXTT0=
EXTT1=
EXTT2=
EXTT3=
EXTT4=
EXTT5=
EXTT6=
EXTT7=
EXTT8=
EXTT9=
EXTT10=
EXTT11=
EXTT12=
EXTT13=
EXTT14=
EXTT15=
EXTT16=
EXTT17=
PLAYORDER=
